<svg xmlns="http://www.w3.org/2000/svg" width="58" height="58" fill="none" viewBox="0 0 58 58"><path fill="#fc5050" d="M34.44 9.062a14.498 14.498 0 1 0 10.252 4.246A14.4 14.4 0 0 0 34.44 9.062m0-9.062C47.452 0 58 10.548 58 23.56c0 13.013-10.548 23.56-23.56 23.56-13.013 0-23.56-10.547-23.56-23.56S21.427 0 34.44 0"/><path fill="#fc5050" d="m.789 50.145 11.293-11.293a2.72 2.72 0 0 1 1.925-.793h1.847l4.077 4.078v1.846a2.72 2.72 0 0 1-.793 1.925L7.847 57.203a2.71 2.71 0 0 1-3.84 0L.8 53.996a2.73 2.73 0 0 1-.011-3.851" opacity=".6"/></svg>